<svg width="92" height="72" viewBox="0 0 92 72" fill="none" xmlns="http://www.w3.org/2000/svg">
<g opacity="0.3">
<path d="M73.8028 24.9819C76.6124 24.6747 78.6409 22.1481 78.3337 19.3386C78.0265 16.5291 75.4999 14.5005 72.6904 14.8077C69.8808 15.1149 67.8523 17.6415 68.1595 20.4511C68.4667 23.2606 70.9933 25.2891 73.8028 24.9819Z" stroke="#EB996E" stroke-width="0.561983" stroke-linecap="round" stroke-linejoin="round"/>
<path d="M77.0881 21.9713C78.2328 19.8516 77.4424 17.2053 75.3227 16.0606C73.2029 14.9159 70.5566 15.7063 69.4119 17.826C68.2672 19.9457 69.0576 22.5921 71.1773 23.7368C73.2971 24.8815 75.9434 24.0911 77.0881 21.9713Z" stroke="#EB996E" stroke-width="0.561983" stroke-linecap="round" stroke-linejoin="round"/>
<path d="M75.1045 20.7706C75.1045 19.3038 73.024 19.2707 73.024 18.6584C73.024 18.3364 73.1932 18.2387 73.54 18.2387C73.8386 18.2387 74.0904 18.3681 74.378 18.6268L75.066 17.8356C74.7484 17.4798 74.3196 17.2421 73.8496 17.1613V16.3357H72.9428V17.1847C72.1653 17.3526 71.7044 17.9071 71.7044 18.7231C71.7044 20.1335 73.7863 20.223 73.7863 20.8683C73.7863 21.182 73.6239 21.3196 73.2207 21.3196C72.8822 21.3196 72.5437 21.1903 72.1075 20.8683L71.5117 21.804C71.9208 22.142 72.4196 22.3533 72.9469 22.4122V23.2227H73.851V22.3558C74.689 22.1563 75.1045 21.5481 75.1045 20.7706Z" stroke="#EB996E" stroke-width="0.561983" stroke-linecap="round" stroke-linejoin="round"/>
</g>
<g opacity="0.3">
<path d="M76.2961 49.4167C77.585 49.4167 78.6298 48.3718 78.6298 47.0829C78.6298 45.7941 77.585 44.7492 76.2961 44.7492C75.0072 44.7492 73.9623 45.7941 73.9623 47.0829C73.9623 48.3718 75.0072 49.4167 76.2961 49.4167Z" stroke="#EB996E" stroke-width="0.561983" stroke-linecap="round" stroke-linejoin="round"/>
<path d="M77.7024 48.4901C78.4795 47.7131 78.4795 46.4533 77.7024 45.6762C76.9254 44.8992 75.6656 44.8992 74.8885 45.6762C74.1115 46.4533 74.1115 47.7131 74.8885 48.4901C75.6656 49.2672 76.9254 49.2672 77.7024 48.4901Z" stroke="#EB996E" stroke-width="0.561983" stroke-linecap="round" stroke-linejoin="round"/>
<path d="M77.1423 47.482C77.1423 46.8132 76.1928 46.794 76.1928 46.5188C76.1928 46.3715 76.2699 46.3275 76.4282 46.3275C76.574 46.3348 76.7114 46.3979 76.8121 46.5036L77.1244 46.1431C76.9801 45.9823 76.7866 45.8738 76.574 45.8349V45.4592H76.1612V45.8459C75.994 45.8701 75.8419 45.9562 75.7351 46.0872C75.6283 46.2182 75.5746 46.3845 75.5846 46.5532C75.5846 47.1971 76.5341 47.2412 76.5341 47.5315C76.5341 47.676 76.4598 47.7379 76.2768 47.7379C76.0893 47.7277 75.9105 47.655 75.769 47.5315L75.4938 47.9595C75.6806 48.1132 75.9083 48.2089 76.1488 48.2347V48.6048H76.5616V48.2044C76.7299 48.1757 76.8819 48.0864 76.9889 47.9533C77.0959 47.8202 77.1505 47.6525 77.1423 47.482Z" stroke="#EB996E" stroke-width="0.561983" stroke-linecap="round" stroke-linejoin="round"/>
</g>
<g opacity="0.3">
<path d="M34.3714 9.99991C36.369 9.6803 37.7293 7.80184 37.4097 5.80424C37.0901 3.80664 35.2116 2.44636 33.214 2.76597C31.2164 3.08557 29.8561 4.96404 30.1757 6.96164C30.4953 8.95923 32.3738 10.3195 34.3714 9.99991Z" stroke="#EB996E" stroke-width="0.561983" stroke-linecap="round" stroke-linejoin="round"/>
<path d="M36.4293 8.05834C37.353 6.60226 36.9214 4.67308 35.4653 3.74939C34.0093 2.8257 32.0801 3.25727 31.1564 4.71334C30.2327 6.16941 30.6643 8.09859 32.1203 9.02229C33.5764 9.94598 35.5056 9.51441 36.4293 8.05834Z" stroke="#EB996E" stroke-width="0.561983" stroke-linecap="round" stroke-linejoin="round"/>
<path d="M35.12 7.01176C35.12 5.96186 33.6312 5.93847 33.6312 5.49814C33.6312 5.26834 33.7523 5.19817 34.0013 5.19817C34.2295 5.20851 34.4446 5.30721 34.6013 5.47337L35.0911 4.90783C34.8638 4.65267 34.5568 4.48196 34.2201 4.42347V3.83728H33.5734V4.44686C33.3155 4.48827 33.082 4.62362 32.9179 4.82685C32.7538 5.03008 32.6706 5.28683 32.6845 5.54768C32.6845 6.55768 34.1733 6.62097 34.1733 7.08332C34.1733 7.30761 34.0591 7.40668 33.7702 7.40668C33.528 7.40668 33.2844 7.31449 32.9734 7.08332L32.5469 7.74931C32.8388 7.99226 33.1958 8.14395 33.5734 8.18551V8.76757H34.2201V8.14698C34.4821 8.09867 34.7176 7.95701 34.8831 7.74826C35.0486 7.53951 35.1328 7.27784 35.12 7.01176Z" stroke="#EB996E" stroke-width="0.561983" stroke-linecap="round" stroke-linejoin="round"/>
</g>
<g opacity="0.3">
<path d="M5.15104 50.031C6.42328 49.8245 7.28721 48.6257 7.0807 47.3535C6.87419 46.0812 5.67543 45.2173 4.40319 45.4238C3.13096 45.6303 2.26702 46.8291 2.47353 48.1013C2.68005 49.3736 3.87881 50.2375 5.15104 50.031Z" stroke="#EB996E" stroke-width="0.561983" stroke-linecap="round" stroke-linejoin="round"/>
<path d="M6.76425 47.7283C6.76425 47.3347 6.64755 46.95 6.42892 46.6228C6.21028 46.2956 5.89953 46.0406 5.53596 45.89C5.17238 45.7394 4.77231 45.7 4.38634 45.7768C4.00037 45.8535 3.64584 46.043 3.36757 46.3213C3.0893 46.5996 2.8998 46.9541 2.82302 47.3401C2.74625 47.726 2.78565 48.1261 2.93625 48.4897C3.08685 48.8533 3.34188 49.164 3.66909 49.3827C3.9963 49.6013 4.38099 49.718 4.77452 49.718C5.30223 49.718 5.80832 49.5084 6.18147 49.1352C6.55462 48.7621 6.76425 48.256 6.76425 47.7283V47.7283Z" stroke="#EB996E" stroke-width="0.561983" stroke-linecap="round" stroke-linejoin="round"/>
<path d="M5.62078 48.1287C5.62078 47.4586 4.6727 47.4407 4.6727 47.1655C4.6727 47.0183 4.74975 46.9742 4.908 46.9742C5.05346 46.9814 5.19053 47.0445 5.29053 47.1504L5.60289 46.7898C5.45901 46.6287 5.26516 46.5207 5.05248 46.483V46.106H4.63967V46.494C4.47504 46.52 4.32592 46.6062 4.22118 46.7358C4.11645 46.8654 4.06356 47.0294 4.07275 47.1958C4.07275 47.8384 5.02221 47.8838 5.02221 48.1741C5.02221 48.3117 4.94928 48.3791 4.76489 48.3791C4.57753 48.3693 4.39882 48.2971 4.25714 48.1741L3.98193 48.6007C4.16911 48.7537 4.3966 48.8493 4.63692 48.8759V49.2447H5.04973V48.8511C5.21655 48.8209 5.3666 48.7308 5.47173 48.5978C5.57687 48.4648 5.62986 48.298 5.62078 48.1287V48.1287Z" stroke="#EB996E" stroke-width="0.561983" stroke-linecap="round" stroke-linejoin="round"/>
</g>
<g opacity="0.3">
<path d="M63.2869 60.4876C64.5615 60.2959 65.4394 59.1074 65.2478 57.8328C65.0562 56.5582 63.8676 55.6803 62.593 55.872C61.3185 56.0636 60.4406 57.2522 60.6322 58.5267C60.8238 59.8013 62.0124 60.6792 63.2869 60.4876Z" stroke="#EB996E" stroke-width="0.561983" stroke-linecap="round" stroke-linejoin="round"/>
<path d="M64.9274 58.1833C64.9268 57.7899 64.8097 57.4055 64.5907 57.0786C64.3718 56.7518 64.0608 56.4972 63.6972 56.347C63.3336 56.1968 62.9336 56.1578 62.5478 56.2349C62.162 56.312 61.8077 56.5017 61.5297 56.7801C61.2517 57.0585 61.0625 57.413 60.986 57.7989C60.9094 58.1848 60.949 58.5847 61.0997 58.9482C61.2503 59.3116 61.5054 59.6222 61.8325 59.8407C62.1597 60.0592 62.5442 60.1758 62.9377 60.1758C63.1992 60.176 63.4583 60.1246 63.6999 60.0245C63.9416 59.9244 64.1612 59.7776 64.346 59.5925C64.5308 59.4074 64.6773 59.1876 64.7771 58.9458C64.8769 58.704 64.9279 58.4449 64.9274 58.1833V58.1833Z" stroke="#EB996E" stroke-width="0.561983" stroke-linecap="round" stroke-linejoin="round"/>
<path d="M63.7839 58.5823C63.7839 57.9136 62.8358 57.8943 62.8358 57.6191C62.8358 57.4719 62.9129 57.4278 63.0711 57.4278C63.2166 57.435 63.3537 57.4981 63.4537 57.604L63.766 57.2435C63.6224 57.0818 63.4285 56.9733 63.2156 56.9352V56.5596H62.8028V56.9476C62.6384 56.9736 62.4895 57.0595 62.3848 57.1889C62.2801 57.3183 62.2271 57.4818 62.2359 57.648C62.2359 58.292 63.1854 58.336 63.1854 58.6277C63.1854 58.7653 63.1124 58.8328 62.928 58.8328C62.7407 58.8229 62.562 58.7507 62.4203 58.6277L62.1451 59.0543C62.3323 59.2073 62.5597 59.3029 62.8001 59.3295V59.6983H63.2129V59.3034C63.3793 59.2729 63.529 59.1829 63.6341 59.0503C63.7391 58.9176 63.7924 58.7513 63.7839 58.5823Z" stroke="#EB996E" stroke-width="0.561983" stroke-linecap="round" stroke-linejoin="round"/>
</g>
<g opacity="0.3">
<path d="M16.7817 23.5791C18.0706 23.5791 19.1155 22.5342 19.1155 21.2454C19.1155 19.9565 18.0706 18.9116 16.7817 18.9116C15.4928 18.9116 14.448 19.9565 14.448 21.2454C14.448 22.5342 15.4928 23.5791 16.7817 23.5791Z" stroke="#EB996E" stroke-width="0.561983" stroke-linecap="round" stroke-linejoin="round"/>
<path d="M18.6527 21.9207C19.0268 20.8874 18.4924 19.7465 17.4591 19.3725C16.4258 18.9985 15.2849 19.5329 14.9109 20.5662C14.5369 21.5994 15.0713 22.7403 16.1046 23.1143C17.1378 23.4884 18.2787 22.954 18.6527 21.9207Z" stroke="#EB996E" stroke-width="0.561983" stroke-linecap="round" stroke-linejoin="round"/>
<path d="M17.6295 21.6471C17.6295 20.977 16.68 20.9591 16.68 20.6839C16.68 20.5367 16.7571 20.4927 16.9153 20.4927C17.0611 20.4997 17.1983 20.5634 17.2979 20.6702L17.6102 20.3096C17.4665 20.148 17.2727 20.0395 17.0598 20.0014V19.6244H16.647V20.0124C16.4825 20.0387 16.3336 20.125 16.2289 20.2545C16.1242 20.3841 16.0712 20.5479 16.0801 20.7142C16.0801 21.3582 17.0295 21.4022 17.0295 21.6926C17.0295 21.8302 16.9566 21.899 16.7722 21.899C16.5848 21.8883 16.4062 21.8157 16.2645 21.6926L15.9893 22.1191C16.1764 22.2722 16.4039 22.3677 16.6442 22.3943V22.7645H17.0571V22.3682C17.2237 22.338 17.3738 22.2482 17.4791 22.1155C17.5844 21.9828 17.6379 21.8163 17.6295 21.6471V21.6471Z" stroke="#EB996E" stroke-width="0.561983" stroke-linecap="round" stroke-linejoin="round"/>
</g>
<g opacity="0.3">
<path d="M15.3359 54.61C18.1453 54.3018 20.1729 51.7745 19.8648 48.9651C19.5566 46.1557 17.0293 44.128 14.2198 44.4362C11.4104 44.7444 9.38276 47.2717 9.69094 50.0811C9.99912 52.8905 12.5264 54.9182 15.3359 54.61Z" stroke="#EB996E" stroke-width="0.561983" stroke-linecap="round" stroke-linejoin="round"/>
<path d="M18.6923 51.4494C19.7582 49.2889 18.8709 46.6735 16.7104 45.6076C14.55 44.5417 11.9345 45.429 10.8687 47.5895C9.80279 49.7499 10.6901 52.3653 12.8505 53.4312C15.011 54.4971 17.6264 53.6098 18.6923 51.4494Z" stroke="#EB996E" stroke-width="0.561983" stroke-linecap="round" stroke-linejoin="round"/>
<path d="M16.6373 50.3978C16.6373 48.9296 14.5567 48.8979 14.5567 48.2842C14.5567 47.9622 14.726 47.8645 15.0727 47.8645C15.3713 47.8645 15.6231 47.9939 15.9121 48.2526L16.6001 47.4614C16.2815 47.1061 15.8525 46.8685 15.3823 46.7871V45.9615H14.4755V46.8119C13.6995 46.9797 13.2371 47.5343 13.2371 48.3489C13.2371 49.7607 15.3177 49.8488 15.3177 50.4941C15.3177 50.8092 15.1567 50.9454 14.7535 50.9454C14.415 50.9454 14.0751 50.8161 13.6403 50.4941L13.0431 51.4298C13.4523 51.7676 13.951 51.9789 14.4783 52.038V52.8485H15.3823V51.9816C16.2217 51.7821 16.6373 51.1739 16.6373 50.3978Z" stroke="#EB996E" stroke-width="0.561983" stroke-linecap="round" stroke-linejoin="round"/>
</g>
<path d="M11.8473 24.9069C11.8804 25.5633 11.3272 26.9283 11.3272 26.9297C11.3272 26.9311 10.5374 26.2926 10.4933 26.2417C9.97595 25.6995 9.29344 24.3496 9.69249 23.6121C9.76221 23.4914 9.85657 23.3867 9.96941 23.3048C10.0823 23.2229 10.2111 23.1657 10.3475 23.1369C10.4839 23.1081 10.6248 23.1083 10.7611 23.1376C10.8975 23.1668 11.0261 23.2244 11.1387 23.3066C11.6272 23.6437 11.8184 24.3483 11.8473 24.9069Z" fill="#BC9434"/>
<path d="M25.2387 37.9461L25.3241 37.997L25.3351 38.5901L24.98 38.3713C24.6374 38.158 24.2755 37.9241 23.9054 37.6833C23.6193 37.9949 23.3151 38.2895 22.9944 38.5653C23.2779 39.1322 23.3976 40.3542 23.4072 40.511C23.8049 40.5014 24.1916 40.4876 24.5562 40.4697C24.8067 40.4574 25.0475 40.4436 25.28 40.4285L25.0846 40.9458C24.9181 40.9458 24.7502 40.9582 24.5755 40.9624C24.1723 40.9734 23.7416 40.9789 23.2985 40.9789C23.2738 41.1371 23.0619 42.4374 22.722 42.9535C22.4138 43.4199 21.8964 43.9291 21.2992 43.9662C21.1614 43.9793 21.0223 43.9633 20.8911 43.9194C20.7598 43.8756 20.6391 43.8047 20.5369 43.7114C20.4346 43.618 20.353 43.5044 20.2973 43.3776C20.2416 43.2509 20.2131 43.1139 20.2135 42.9755C20.2452 42.1361 21.5193 41.3242 22.2404 41.1178C22.283 41.1068 22.7591 41.0284 23.0591 40.9802C22.8789 40.9802 22.7027 40.9802 22.517 40.9802C22.1482 40.9802 21.7808 40.961 21.3845 40.9472L20.8066 40.9059C20.6139 40.8963 20.4103 40.8619 20.2108 40.8399C19.747 40.7807 19.2819 40.7023 18.8141 40.6046C18.8141 40.9266 18.7783 42.0714 18.5389 42.5819C18.2995 43.0924 17.866 43.6731 17.2867 43.7997C17.1514 43.8339 17.0104 43.8392 16.8729 43.8153C16.7354 43.7914 16.6045 43.7388 16.4887 43.6609C16.3729 43.583 16.2748 43.4816 16.2008 43.3632C16.1268 43.2449 16.0786 43.1123 16.0593 42.9741C15.963 42.1402 17.0996 41.1412 17.7821 40.8316C17.8233 40.8124 18.3325 40.6459 18.6228 40.5564C18.3476 40.4973 18.0614 40.4408 17.7793 40.372C16.9647 40.1739 16.1474 39.9482 15.33 39.7267L14.5828 39.5354C14.5828 39.651 14.5759 41.0133 14.3076 41.5843C14.0737 42.0921 13.6334 42.6755 13.0554 42.8021C12.9201 42.8365 12.7791 42.842 12.6415 42.8182C12.5039 42.7944 12.3729 42.7418 12.2571 42.6638C12.1412 42.5859 12.0431 42.4844 11.9692 42.366C11.8952 42.2475 11.8471 42.1148 11.828 41.9765C11.7317 41.1426 12.8683 40.1436 13.5494 39.834C13.6017 39.8106 14.342 39.5712 14.5333 39.5203C13.9829 39.3744 13.4325 39.2354 12.8821 39.1212C12.1419 38.9625 11.3922 38.8517 10.6378 38.7896C10.6378 38.8433 10.6378 40.2647 10.3626 40.8536C10.1273 41.3614 9.68831 41.9435 9.11038 42.0701C8.97497 42.1047 8.83377 42.1104 8.69603 42.0866C8.55829 42.0629 8.42711 42.0104 8.3111 41.9324C8.19509 41.8545 8.09685 41.7529 8.02283 41.6343C7.94881 41.5158 7.90068 41.3829 7.88159 41.2444C7.78664 40.4119 8.92186 39.4116 9.60437 39.102C9.65803 39.0786 10.4548 38.8268 10.602 38.7841C10.558 38.7841 10.5139 38.7731 10.4644 38.7703C9.70628 38.7292 8.94603 38.7555 8.19257 38.8488C7.77976 38.8956 7.38072 38.963 6.99681 39.0373C7.02433 39.3029 7.13441 40.5138 6.95002 41.0683C6.77251 41.5995 6.39961 42.2255 5.83819 42.4154C5.70897 42.4618 5.57153 42.4808 5.43458 42.4712C5.29763 42.4617 5.16415 42.4239 5.04257 42.3601C4.921 42.2964 4.81398 42.2081 4.72829 42.1008C4.64259 41.9936 4.58009 41.8697 4.54473 41.7371C4.35759 40.9114 5.37035 39.801 6.0212 39.4185C6.05561 39.3978 6.43401 39.2258 6.70922 39.1033C6.53584 39.1405 6.35833 39.1749 6.19321 39.2121C5.57537 39.3497 5.01671 39.5203 4.52409 39.673C4.24889 39.7625 3.99432 39.8478 3.7604 39.9303C3.65169 40.2055 3.19761 41.3064 2.78618 41.7013C2.37474 42.0962 1.76379 42.4746 1.17898 42.3893C0.594172 42.304 0.177237 41.7646 0.329975 41.1798C0.540507 40.3679 1.96056 39.845 2.70912 39.8037C2.77379 39.8037 3.79067 39.8588 3.78517 39.8725V39.8891C4.00946 39.8051 4.24889 39.7171 4.51446 39.6276C5.00432 39.4639 5.56024 39.2836 6.17807 39.1281C6.84178 38.951 7.51537 38.8131 8.19532 38.7153C8.95597 38.6043 9.72497 38.561 10.4933 38.586H10.5208C10.2883 38.5034 9.64978 38.2502 9.60299 38.2254C8.9425 37.8718 7.87333 36.8026 8.02194 35.977C8.05047 35.8406 8.10741 35.7117 8.18907 35.5988C8.27072 35.4858 8.37526 35.3914 8.49586 35.3215C8.61646 35.2517 8.75043 35.208 8.88903 35.1934C9.02763 35.1788 9.16775 35.1936 9.30027 35.2367C9.86994 35.4005 10.2635 36.0087 10.4713 36.5316C10.6983 37.1205 10.6171 38.4855 10.6089 38.5956C11.3901 38.6407 12.1674 38.7377 12.9357 38.8859C13.3829 38.9699 13.8329 39.0689 14.2815 39.1735C14.0833 39.0951 13.9072 39.0235 13.8838 39.0112C13.2219 38.6575 12.1541 37.5883 12.3027 36.7627C12.3313 36.6263 12.3883 36.4974 12.4699 36.3844C12.5515 36.2714 12.656 36.1769 12.7766 36.1069C12.8972 36.037 13.0311 35.9932 13.1697 35.9784C13.3083 35.9636 13.4485 35.9781 13.5811 36.0211C14.1507 36.1848 14.5512 36.7944 14.7521 37.3173C14.953 37.8402 14.9103 39.0125 14.8897 39.3208C15.0617 39.362 15.2337 39.4019 15.4043 39.4446C16.2299 39.6483 17.0555 39.8574 17.8591 40.0335C18.144 40.0968 18.4288 40.1491 18.7123 40.2014C18.5361 40.1312 18.3889 40.0721 18.3683 40.0638C17.7064 39.7115 16.6372 38.641 16.7872 37.8154C16.8157 37.679 16.8727 37.5501 16.9543 37.4372C17.036 37.3242 17.1405 37.2297 17.2611 37.1599C17.3817 37.0901 17.5157 37.0464 17.6543 37.0318C17.7929 37.0172 17.933 37.0319 18.0655 37.0751C18.6338 37.2388 19.0356 37.8484 19.2365 38.3699C19.4374 38.8914 19.3989 39.9524 19.3741 40.3184C19.6658 40.3638 19.9589 40.4092 20.2438 40.4395C20.4392 40.456 20.6249 40.4863 20.8217 40.4918L21.401 40.5207C21.7698 40.5207 22.1496 40.5317 22.5101 40.5275C22.7591 40.5275 22.9986 40.5206 23.238 40.5151C22.9532 40.456 22.3972 40.328 22.3518 40.3115C21.7389 40.0696 21.198 39.675 20.7804 39.1653C20.7113 39.1412 20.6445 39.1108 20.5809 39.0744C20.4576 39.0093 20.3494 38.9189 20.2634 38.8092C20.1774 38.6994 20.1155 38.5727 20.0818 38.4374C20.048 38.3022 20.0432 38.1613 20.0675 38.024C20.0919 37.8867 20.1449 37.7561 20.2231 37.6406C20.7116 36.9595 22.2239 36.9815 22.9367 37.2113C22.9793 37.2251 23.4196 37.4218 23.6948 37.5512C23.5449 37.4507 23.3976 37.3544 23.2435 37.2485C22.938 37.0421 22.6394 36.8274 22.3174 36.5976L21.8675 36.233C21.712 36.1188 21.562 35.9784 21.4065 35.8491C21.0543 35.545 20.7102 35.2175 20.3717 34.8858C20.1915 35.1528 19.5337 36.0912 19.0549 36.3871C18.576 36.6829 17.8922 36.9251 17.3404 36.7118C16.7886 36.4985 16.4941 35.8862 16.7679 35.3496C17.1477 34.601 18.6476 34.3946 19.3824 34.5116C19.4292 34.5198 19.9493 34.6643 20.2341 34.7482C20.0332 34.5446 19.831 34.3423 19.6328 34.129C19.0631 33.5153 18.5045 32.8755 17.9458 32.2397C17.7738 32.0457 17.6004 31.8531 17.4284 31.6604C17.3651 31.7568 16.6028 32.8892 16.0717 33.2208C15.5969 33.5153 14.9089 33.7575 14.3571 33.5442C14.2255 33.4985 14.105 33.4255 14.0034 33.3302C13.9018 33.2348 13.8213 33.1191 13.7674 32.9906C13.7134 32.8622 13.687 32.7238 13.69 32.5845C13.693 32.4451 13.7253 32.308 13.7847 32.182C14.1659 31.4348 15.6644 31.227 16.3992 31.3453C16.4556 31.355 17.2055 31.5627 17.3927 31.6205C17.0129 31.1953 16.6303 30.7757 16.2368 30.3821C15.7071 29.8419 15.1431 29.3363 14.5484 28.8685C14.5195 28.9139 13.7338 30.0987 13.1862 30.4385C12.7101 30.733 12.022 30.9766 11.4703 30.7633C11.3386 30.7174 11.218 30.6443 11.1164 30.5488C11.0148 30.4533 10.9345 30.3374 10.8806 30.2088C10.8268 30.0802 10.8006 29.9417 10.8038 29.8022C10.807 29.6628 10.8395 29.5257 10.8992 29.3996C11.279 28.6525 12.7775 28.446 13.5136 28.563C13.5728 28.5726 14.3792 28.7983 14.5223 28.8492C14.4879 28.8217 14.4548 28.7901 14.4191 28.7639C13.8094 28.3119 13.1611 27.9146 12.4816 27.5764C12.1087 27.3865 11.7413 27.2241 11.3808 27.0742C11.257 27.3108 10.679 28.3814 10.2208 28.7419C9.76261 29.1024 9.12001 29.4038 8.55033 29.2524C8.41451 29.2212 8.28677 29.1618 8.17541 29.078C8.06405 28.9942 7.97155 28.888 7.90394 28.7661C7.83633 28.6443 7.79511 28.5095 7.78296 28.3707C7.77081 28.2319 7.78801 28.0921 7.83343 27.9603C8.12789 27.176 9.59474 26.8058 10.3433 26.8416C10.3846 26.8416 10.796 26.909 11.0946 26.9613C10.9309 26.8966 10.763 26.8237 10.6047 26.7673C10.0103 26.5444 9.453 26.3765 8.95351 26.2307C8.6783 26.1508 8.41411 26.0848 8.1733 26.0243C7.93112 26.1921 6.94727 26.8581 6.38447 26.9627C5.82168 27.0673 5.10477 27.0453 4.6672 26.6476C4.22962 26.2499 4.17596 25.5743 4.62592 25.1711C5.24926 24.6097 6.7216 24.9578 7.36971 25.3335C7.42475 25.3665 8.24211 25.9761 8.22972 25.9857L8.21458 25.9954C8.44713 26.049 8.69619 26.1082 8.96727 26.1784C9.46677 26.316 10.0282 26.4687 10.6295 26.6806C11.2798 26.9009 11.9166 27.1591 12.5367 27.4539C13.2322 27.7816 13.8975 28.1697 14.525 28.6139L14.5457 28.6318C14.3984 28.435 14.0063 27.8709 13.9801 27.8241C13.6237 27.165 13.3224 25.683 13.9031 25.072C14.0021 24.9742 14.1207 24.8982 14.251 24.8492C14.3814 24.8002 14.5206 24.7791 14.6596 24.7874C14.7986 24.7957 14.9343 24.8332 15.0578 24.8974C15.1814 24.9616 15.2901 25.0511 15.3768 25.1601C15.7621 25.6101 15.7593 26.3394 15.6396 26.8856C15.502 27.5021 14.6764 28.596 14.6172 28.6827C15.2503 29.1524 15.8511 29.6641 16.4157 30.2142C16.7432 30.5321 17.0638 30.861 17.3789 31.1953C17.2578 31.022 17.1491 30.8651 17.1367 30.8417C16.7803 30.1826 16.479 28.6992 17.0597 28.0897C17.1587 27.9918 17.2773 27.9159 17.4076 27.8668C17.5379 27.8178 17.6771 27.7967 17.8162 27.805C17.9552 27.8133 18.0909 27.8508 18.2144 27.915C18.338 27.9792 18.4467 28.0687 18.5334 28.1777C18.9187 28.6277 18.9159 29.357 18.7962 29.9033C18.6765 30.4495 17.9926 31.4045 17.8082 31.6536C17.9293 31.7829 18.0504 31.9109 18.1701 32.0402C18.7439 32.6649 19.3136 33.2897 19.8915 33.8855C20.0952 34.096 20.3043 34.2983 20.5107 34.4964C20.4034 34.3409 20.314 34.2102 20.3016 34.1882C19.9452 33.5291 19.6438 32.0471 20.2245 31.4361C20.6373 30.9999 21.3253 31.0839 21.6982 31.5242C22.0711 31.9645 22.0808 32.7048 21.9611 33.2511C21.8413 33.7974 21.2235 34.6588 21.0061 34.9546C21.2249 35.1542 21.4437 35.3537 21.6652 35.5367C21.8179 35.6578 21.9583 35.7858 22.1193 35.8986L22.5858 36.2412C22.8912 36.449 23.2036 36.665 23.5063 36.8591C23.7155 36.9967 23.9191 37.1232 24.1214 37.2512C23.9164 37.0448 23.5228 36.6306 23.4939 36.5921C23.0412 35.9949 22.5197 34.5762 23.0013 33.8882C23.0844 33.7764 23.1901 33.6833 23.3116 33.615C23.433 33.5467 23.5674 33.5047 23.7062 33.4917C23.8449 33.4787 23.9848 33.4951 24.1168 33.5397C24.2488 33.5843 24.3699 33.6562 24.4723 33.7506C24.9195 34.1373 25.0227 34.8583 24.9924 35.417C24.9525 36.0321 24.3374 37.1934 24.259 37.3434C24.5948 37.5581 24.9236 37.7604 25.2387 37.9461Z" fill="#BC9434"/>
<path d="M6.87991 38.9507C6.87991 38.9658 5.86991 38.8543 5.80661 38.8406C5.07595 38.6741 3.76184 37.9241 3.68754 37.0889C3.67927 36.9497 3.70038 36.8104 3.7495 36.6799C3.79862 36.5495 3.87464 36.4308 3.97263 36.3317C4.07061 36.2325 4.18837 36.1551 4.31824 36.1044C4.44811 36.0538 4.58719 36.031 4.72644 36.0376C5.31813 36.0445 5.86578 36.5261 6.1974 36.9774C6.58682 37.5058 6.87991 38.9493 6.87991 38.9507Z" fill="#BC9434"/>
<path d="M79.977 24.9069C79.9439 25.5633 80.4957 26.9283 80.4957 26.9297C80.4957 26.9311 81.2856 26.2926 81.331 26.2417C81.8483 25.6995 82.5309 24.3496 82.1318 23.6121C82.0621 23.4914 81.9677 23.3867 81.8549 23.3048C81.742 23.2229 81.6132 23.1657 81.4768 23.1369C81.3404 23.1081 81.1995 23.1083 81.0631 23.1376C80.9268 23.1668 80.7982 23.2244 80.6856 23.3066C80.1957 23.6437 80.0045 24.3483 79.977 24.9069Z" fill="#BC9434"/>
<path d="M66.5855 37.9462L66.4988 37.9971L66.4892 38.5901L66.8442 38.3714C67.1868 38.1581 67.5487 37.9241 67.9175 37.6833C68.2036 37.995 68.5077 38.2895 68.8284 38.5654C68.545 39.1323 68.4266 40.3542 68.4156 40.5111C68.018 40.5014 67.6327 40.4877 67.268 40.4698C67.0162 40.4574 66.7754 40.4436 66.5442 40.4285L66.741 40.95C66.9061 40.95 67.074 40.9624 67.2488 40.9665C67.6519 40.9775 68.084 40.983 68.5271 40.983C68.5519 41.1413 68.7638 42.4416 69.1036 42.9576C69.4119 43.4241 69.9292 43.9332 70.5251 43.9704C70.6638 43.9841 70.8038 43.9685 70.9361 43.9244C71.0684 43.8804 71.1899 43.809 71.2927 43.7149C71.3955 43.6208 71.4774 43.506 71.5329 43.3782C71.5884 43.2503 71.6163 43.1122 71.6149 42.9728C71.5832 42.1334 70.309 41.3215 69.588 41.1151C69.5453 41.1041 69.0692 41.0257 68.7624 40.9775C68.944 40.9775 69.1188 40.9775 69.3128 40.9775C69.6816 40.9775 70.049 40.9583 70.4439 40.9445L71.0218 40.9032C71.2158 40.8936 71.4181 40.8592 71.619 40.8372C72.0813 40.778 72.5478 40.6996 73.0157 40.6019C73.0157 40.9239 73.0501 42.0687 73.2909 42.5792C73.5317 43.0897 73.9651 43.6704 74.5431 43.797C74.6784 43.8312 74.8195 43.8365 74.9571 43.8126C75.0947 43.7887 75.2257 43.7361 75.3416 43.6582C75.4575 43.5804 75.5557 43.4789 75.6298 43.3606C75.7039 43.2423 75.7523 43.1097 75.7718 42.9714C75.8668 42.1375 74.7316 41.1385 74.0491 40.8289C74.0064 40.8097 73.4987 40.6432 73.2083 40.5537C73.4835 40.4946 73.7684 40.4381 74.0518 40.3693C74.865 40.1712 75.6838 39.9455 76.5011 39.724L77.2359 39.5355C77.2359 39.6511 77.2428 41.0133 77.5111 41.5844C77.7451 42.0921 78.184 42.6755 78.7619 42.8021C79.3399 42.9287 79.9219 42.5806 79.9907 41.9765C80.0857 41.1427 78.9505 40.1437 78.2679 39.8341C78.217 39.8107 77.4767 39.5712 77.2855 39.5203C77.8359 39.3745 78.3863 39.2355 78.9367 39.1213C79.6764 38.9625 80.4256 38.8517 81.1796 38.7897C81.1796 38.8433 81.1796 40.2648 81.4548 40.8537C81.6887 41.3614 82.1291 41.9435 82.707 42.0701C82.8423 42.1045 82.9834 42.11 83.1209 42.0862C83.2585 42.0624 83.3895 42.0098 83.5054 41.9318C83.6212 41.8539 83.7193 41.7524 83.7933 41.634C83.8672 41.5155 83.9153 41.3828 83.9344 41.2445C84.0307 40.412 82.8955 39.4116 82.213 39.102C82.1593 39.0786 81.3626 38.8268 81.214 38.7842C81.258 38.7842 81.3034 38.7732 81.3516 38.7704C82.1093 38.7293 82.869 38.7556 83.622 38.8488C84.0349 38.8956 84.4353 38.963 84.8178 39.0373C84.7917 39.3029 84.6802 40.5138 84.866 41.0684C85.0435 41.5995 85.4164 42.2256 85.9764 42.4155C86.1063 42.4634 86.2448 42.4837 86.3829 42.4749C86.5211 42.4662 86.6559 42.4287 86.7787 42.3648C86.9015 42.301 87.0097 42.2121 87.0961 42.104C87.1826 41.9959 87.2455 41.8709 87.2809 41.7371C87.468 40.9115 86.4553 39.801 85.8044 39.4185C85.77 39.3979 85.3916 39.2259 85.1164 39.1034C85.2884 39.1405 85.4673 39.1749 85.6324 39.2121C86.2503 39.3497 86.8075 39.5203 87.3002 39.6731C87.5754 39.7625 87.8313 39.8478 88.0652 39.9304C88.1739 40.2056 88.628 41.3064 89.0395 41.7013C89.4509 42.0962 90.0605 42.4746 90.6453 42.3893C90.7837 42.3726 90.917 42.327 91.0366 42.2554C91.1563 42.1838 91.2595 42.0879 91.3397 41.9739C91.4199 41.8598 91.4752 41.7302 91.5021 41.5934C91.5289 41.4566 91.5267 41.3157 91.4957 41.1798C91.2837 40.368 89.8637 39.8451 89.1165 39.8038C89.0518 39.8038 88.035 39.8588 88.0405 39.8726V39.8891C87.8175 39.8052 87.5767 39.7171 87.3125 39.6277C86.8213 39.4639 86.2668 39.2837 85.6489 39.1282C84.9852 38.9511 84.3116 38.8133 83.6317 38.7154C82.871 38.6043 82.102 38.561 81.3337 38.586H81.3062C81.5374 38.5035 82.1772 38.2503 82.224 38.2255C82.8845 37.8719 83.9537 36.8027 83.8037 35.9771C83.7752 35.8407 83.7182 35.7118 83.6366 35.5988C83.5549 35.4859 83.4504 35.3914 83.3298 35.3216C83.2092 35.2517 83.0752 35.2081 82.9366 35.1935C82.798 35.1789 82.6579 35.1936 82.5254 35.2368C81.9571 35.4005 81.5553 36.0087 81.3544 36.5316C81.1273 37.1205 81.2168 38.4856 81.2168 38.5956C80.4347 38.6401 79.6564 38.7366 78.8872 38.8846C78.4386 38.9685 77.99 39.0676 77.5414 39.1722C77.7396 39.0938 77.9157 39.0222 77.9391 39.0098C78.5996 38.6562 79.6687 37.587 79.5201 36.7614C79.4916 36.625 79.4346 36.4961 79.353 36.3831C79.2713 36.2701 79.1669 36.1756 79.0463 36.1056C78.9257 36.0357 78.7918 35.9919 78.6532 35.9771C78.5146 35.9623 78.3744 35.9768 78.2418 36.0197C77.6721 36.1835 77.2703 36.7931 77.0694 37.3159C76.8685 37.8388 76.9126 39.0112 76.9318 39.3194L76.4158 39.4433C75.5902 39.6469 74.7729 39.8561 73.9624 40.0322C73.6762 40.0955 73.3927 40.1478 73.1092 40.2001C73.284 40.1299 73.4312 40.0707 73.4532 40.0625C74.1137 39.7102 75.1829 38.6397 75.0343 37.8141C75.0058 37.6776 74.9488 37.5488 74.8672 37.4358C74.7855 37.3229 74.681 37.2284 74.5604 37.1586C74.4398 37.0887 74.3058 37.0451 74.1672 37.0305C74.0286 37.0159 73.8885 37.0306 73.756 37.0738C73.1863 37.2375 72.7859 37.8471 72.585 38.3686C72.3841 38.8901 72.4199 39.9483 72.4405 40.3129C72.1488 40.3583 71.8557 40.4037 71.5708 40.434C71.3755 40.4505 71.1883 40.4808 70.9915 40.4863L70.4136 40.5152C70.0448 40.5152 69.6637 40.5262 69.3045 40.5221C69.0541 40.5221 68.816 40.5152 68.5766 40.5097C68.8615 40.4505 69.4174 40.3226 69.4614 40.306C70.0746 40.0646 70.6157 39.67 71.0328 39.1598C71.1024 39.1358 71.1697 39.1054 71.2337 39.069C71.3568 39.0037 71.4649 38.9132 71.5507 38.8034C71.6366 38.6937 71.6984 38.5671 71.7322 38.4318C71.7659 38.2966 71.7708 38.1558 71.7466 38.0185C71.7224 37.8813 71.6695 37.7507 71.5915 37.6352C71.103 36.954 69.5894 36.9761 68.8766 37.2059C68.8353 37.2196 68.395 37.4164 68.1184 37.5457C68.2698 37.4453 68.417 37.349 68.5697 37.243C68.8752 37.0366 69.1738 36.8219 69.4958 36.5922L69.9554 36.2385C70.1109 36.1243 70.2609 35.984 70.4164 35.8546C70.77 35.5505 71.1126 35.223 71.4511 34.8914C71.6328 35.1583 72.2905 36.0968 72.768 36.3926C73.2455 36.6885 73.9335 36.921 74.4839 36.7132C75.0343 36.5055 75.3288 35.8876 75.0549 35.351C74.6752 34.6024 73.1767 34.396 72.4405 34.513C72.3951 34.5212 71.8736 34.6657 71.5887 34.7497C71.791 34.546 71.9933 34.3437 72.1901 34.1304C72.7611 33.5167 73.3184 32.8769 73.8784 32.2412C74.0491 32.0472 74.2224 31.8545 74.3944 31.6619C74.4591 31.7582 75.2201 32.8907 75.7512 33.2223C76.2273 33.5167 76.9153 33.7589 77.4671 33.5456C77.5987 33.4999 77.7193 33.427 77.8209 33.3316C77.9224 33.2362 78.0028 33.1205 78.0567 32.992C78.1105 32.8634 78.1367 32.725 78.1335 32.5857C78.1304 32.4464 78.0979 32.3093 78.0382 32.1834C77.6584 31.4362 76.1599 31.2284 75.4237 31.3468C75.3687 31.3564 74.6187 31.5642 74.4302 31.622C74.81 31.1968 75.1939 30.7771 75.5875 30.3835C76.1164 29.843 76.6799 29.3374 77.2745 28.8699C77.3047 28.9153 78.0904 30.1001 78.6381 30.44C79.1142 30.7344 79.8008 30.978 80.354 30.7647C80.4857 30.7188 80.6063 30.6458 80.7078 30.5502C80.8094 30.4547 80.8898 30.3389 80.9436 30.2102C80.9975 30.0816 81.0237 29.9431 81.0205 29.8037C81.0173 29.6643 80.9848 29.5271 80.925 29.4011C80.5453 28.6539 79.0468 28.4475 78.3106 28.5644C78.2528 28.5741 77.4465 28.7997 77.3034 28.8507C77.3378 28.8231 77.3708 28.7915 77.4052 28.7653C78.0153 28.3134 78.6641 27.916 79.344 27.5778C79.7169 27.3879 80.0843 27.2256 80.4448 27.0756C80.5687 27.3123 81.1452 28.3828 81.6048 28.7433C82.0644 29.1038 82.7056 29.4052 83.2739 29.2538C83.4099 29.2228 83.5378 29.1635 83.6493 29.0798C83.7608 28.9961 83.8534 28.8898 83.9212 28.768C83.9889 28.6461 84.0303 28.5113 84.0425 28.3724C84.0547 28.2335 84.0376 28.0936 83.9922 27.9617C83.6964 27.1774 82.2295 26.8073 81.481 26.843C81.4411 26.843 81.0296 26.9105 80.731 26.9627C80.8948 26.8981 81.0627 26.8251 81.2209 26.7687C81.814 26.5458 82.3713 26.3779 82.8721 26.2321C83.1473 26.1523 83.4115 26.0862 83.6509 26.0257C83.8931 26.1936 84.877 26.8595 85.4398 26.9641C86.0026 27.0687 86.7181 27.0467 87.1571 26.649C87.596 26.2513 87.6483 25.5757 87.1983 25.1725C86.5736 24.6111 85.1013 24.9593 84.4545 25.3349C84.3981 25.3679 83.5821 25.9775 83.5945 25.9871L83.6097 25.9968C83.3757 26.0504 83.1267 26.1096 82.857 26.1798C82.3575 26.3174 81.7947 26.4701 81.1934 26.682C80.5435 26.9024 79.9072 27.1606 79.2876 27.4554C78.5917 27.7824 77.9264 28.1706 77.2992 28.6154L77.2772 28.6332C77.4244 28.4365 77.818 27.8723 77.8428 27.8255C78.1991 27.1664 78.5005 25.6844 77.9212 25.0735C77.822 24.9756 77.7033 24.8996 77.5729 24.8506C77.4424 24.8015 77.3031 24.7804 77.164 24.7888C77.0249 24.7971 76.8891 24.8345 76.7654 24.8988C76.6417 24.963 76.5329 25.0525 76.4461 25.1615C76.0622 25.6115 76.0636 26.3408 76.1846 26.8871C76.3222 27.5035 77.1479 28.5975 77.207 28.6842C76.5803 29.1528 75.9855 29.6626 75.4265 30.2102C75.099 30.528 74.7797 30.8569 74.4632 31.1913C74.5843 31.0179 74.6917 30.861 74.7054 30.8376C75.0618 30.1785 75.3618 28.6952 74.7825 28.0856C74.6833 27.9877 74.5646 27.9117 74.4342 27.8627C74.3037 27.8136 74.1644 27.7926 74.0253 27.8009C73.8862 27.8092 73.7504 27.8467 73.6267 27.9109C73.503 27.9751 73.3942 28.0646 73.3074 28.1736C72.9235 28.6236 72.9248 29.3529 73.0459 29.8992C73.167 30.4455 73.8495 31.4004 74.0325 31.6495L73.6583 32.0444C73.0845 32.6691 72.5134 33.2938 71.9355 33.8896C71.7332 34.1002 71.5227 34.3025 71.3163 34.5006C71.425 34.3451 71.5144 34.2144 71.5254 34.1924C71.8818 33.5333 72.1832 32.0513 71.6039 31.4403C71.5047 31.3424 71.386 31.2665 71.2556 31.2174C71.1251 31.1684 70.9858 31.1473 70.8467 31.1556C70.7076 31.1639 70.5718 31.2014 70.4481 31.2656C70.3244 31.3298 70.2156 31.4194 70.1288 31.5284C69.7449 31.9783 69.7462 32.709 69.8673 33.2553C69.9884 33.8016 70.6049 34.663 70.8209 34.9588C70.6021 35.1583 70.3847 35.3579 70.1632 35.5409C70.0091 35.662 69.8701 35.7899 69.7091 35.9028L69.2412 36.2454C68.9371 36.4532 68.6234 36.6692 68.3207 36.8632C68.1115 37.0008 67.9079 37.1274 67.707 37.2554C67.912 37.049 68.3055 36.6348 68.3344 36.5963C68.7858 35.9991 69.3087 34.5804 68.8271 33.8924C68.7439 33.7806 68.6382 33.6875 68.5168 33.6192C68.3954 33.5509 68.2609 33.5089 68.1222 33.4959C67.9835 33.4829 67.8436 33.4992 67.7116 33.5439C67.5796 33.5885 67.4585 33.6603 67.3561 33.7548C66.9075 34.1415 66.8057 34.8625 66.8346 35.4212C66.8759 36.0362 67.4909 37.1976 67.568 37.3476C67.2295 37.5581 66.8992 37.7604 66.5855 37.9462Z" fill="#BC9434"/>
<path d="M84.9416 38.9507C84.9416 38.9658 85.9516 38.8543 86.0149 38.8406C86.7442 38.6741 88.0583 37.9241 88.1326 37.0889C88.1863 36.4876 87.6744 36.0307 87.0951 36.0376C86.5158 36.0445 85.9557 36.5261 85.6241 36.9774C85.2374 37.5058 84.9416 38.9493 84.9416 38.9507Z" fill="#BC9434"/>
<path d="M27.5047 13.3473L25.1624 15.1813L28.005 18.8119L30.3474 16.9779L27.5047 13.3473Z" fill="#BC9434" stroke="#BC9434" stroke-width="0.561983" stroke-linejoin="round"/>
<path d="M27.3173 11.4182L23.3346 14.5365L25.3519 17.1129L29.3345 13.9946L27.3173 11.4182Z" fill="#BC9434" stroke="#BC9434" stroke-width="0.561983" stroke-linejoin="round"/>
<path d="M24.1943 13.9855L25.6736 15.8748" stroke="#BC9434" stroke-width="0.561983" stroke-linejoin="round"/>
<path d="M25.5428 12.9301L27.0221 14.818" stroke="#BC9434" stroke-width="0.561983" stroke-linejoin="round"/>
<path d="M25.1755 13.9428L26.6548 15.8307" stroke="#BC9434" stroke-width="0.561983" stroke-linejoin="round"/>
<path d="M57.8939 16.9805L60.2363 18.8145L63.079 15.1839L60.7366 13.3499L57.8939 16.9805Z" fill="#BC9434" stroke="#BC9434" stroke-width="0.561983" stroke-linejoin="round"/>
<path d="M58.9091 13.9939L62.8918 17.1122L64.909 14.5358L60.9263 11.4175L58.9091 13.9939Z" fill="#BC9434" stroke="#BC9434" stroke-width="0.561983" stroke-linejoin="round"/>
<path d="M64.0509 13.9855L62.5717 15.8748" stroke="#BC9434" stroke-width="0.561983" stroke-linejoin="round"/>
<path d="M62.7024 12.9301L61.2232 14.818" stroke="#BC9434" stroke-width="0.561983" stroke-linejoin="round"/>
<path d="M63.0698 13.9428L61.5906 15.8307" stroke="#BC9434" stroke-width="0.561983" stroke-linejoin="round"/>
<path d="M46.3552 6.96912H41.5309V11.8003H46.3552V6.96912Z" fill="#BC9434" stroke="#BC9434" stroke-width="0.561983" stroke-linejoin="round"/>
<path d="M47.434 4.19781H40.4521V9.02903H47.434V4.19781Z" fill="#BC9434" stroke="#BC9434" stroke-width="0.561983" stroke-linejoin="round"/>
<path d="M41.0795 4.18127V8.20752" stroke="#BC9434" stroke-width="0.561983" stroke-linejoin="round"/>
<path d="M41.6547 8.38777V6.23016" stroke="#BC9434" stroke-width="0.561983" stroke-linejoin="round"/>
<path d="M42.2657 4.28998V7.34475" stroke="#BC9434" stroke-width="0.561983" stroke-linejoin="round"/>
<path d="M42.8766 5.76373V8.56807" stroke="#BC9434" stroke-width="0.561983" stroke-linejoin="round"/>
<path d="M43.8124 4.32581V7.48928" stroke="#BC9434" stroke-width="0.561983" stroke-linejoin="round"/>
<path d="M61.7878 54.0373C71.6437 44.1814 71.6437 28.2018 61.7878 18.3459C51.9319 8.48998 35.9523 8.48998 26.0964 18.3459C16.2405 28.2018 16.2405 44.1814 26.0964 54.0373C35.9523 63.8932 51.9319 63.8932 61.7878 54.0373Z" fill="#BC9434" stroke="#BC9434" stroke-width="0.561983" stroke-linejoin="round"/>
<path d="M59.6958 51.9453C68.3964 43.2448 68.3964 29.1384 59.6958 20.4378C50.9953 11.7373 36.8889 11.7373 28.1883 20.4378C19.4878 29.1384 19.4878 43.2448 28.1883 51.9454C36.8889 60.6459 50.9953 60.6459 59.6958 51.9453Z" fill="white" stroke="#BC9434" stroke-width="0.561983" stroke-linejoin="round"/>
<path d="M58.4611 50.7106C66.4798 42.692 66.4798 29.6912 58.4611 21.6726C50.4425 13.6539 37.4417 13.6539 29.4231 21.6726C21.4044 29.6912 21.4044 42.692 29.4231 50.7106C37.4417 58.7293 50.4425 58.7293 58.4611 50.7106Z" fill="white" stroke="#BC9434" stroke-width="0.561983" stroke-linejoin="round"/>
<path d="M43.9431 15.6587V18.4424" stroke="#BC9434" stroke-width="0.561983" stroke-linejoin="round"/>
<path d="M43.9431 53.9204V56.7041" stroke="#BC9434" stroke-width="0.561983" stroke-linejoin="round"/>
<path d="M64.4651 36.1821H61.6814" stroke="#BC9434" stroke-width="0.561983" stroke-linejoin="round"/>
<path d="M26.2034 36.1821H23.4197" stroke="#BC9434" stroke-width="0.561983" stroke-linejoin="round"/>
<path d="M58.4546 21.6705L56.4855 23.6382" stroke="#BC9434" stroke-width="0.561983" stroke-linejoin="round"/>
<path d="M31.3992 48.7245L29.4315 50.6936" stroke="#BC9434" stroke-width="0.561983" stroke-linejoin="round"/>
<path d="M29.4315 21.6705L31.3992 23.6382" stroke="#BC9434" stroke-width="0.561983" stroke-linejoin="round"/>
<path d="M56.4855 48.7245L58.4546 50.6936" stroke="#BC9434" stroke-width="0.561983" stroke-linejoin="round"/>
<path d="M49.0082 34.2267L49.3288 35.45L28.3445 40.511L28.2482 40.1436L49.0082 34.2267Z" fill="#BC9434" stroke="#BC9434" stroke-width="0.561983" stroke-linejoin="round"/>
<path d="M44.748 36.1917C44.748 36.0325 44.7008 35.8769 44.6123 35.7445C44.5239 35.6121 44.3982 35.5089 44.2511 35.448C44.104 35.3871 43.9421 35.3711 43.786 35.4022C43.6298 35.4332 43.4864 35.5099 43.3738 35.6225C43.2613 35.7351 43.1846 35.8785 43.1535 36.0346C43.1225 36.1908 43.1384 36.3527 43.1993 36.4997C43.2603 36.6468 43.3634 36.7726 43.4958 36.861C43.6282 36.9495 43.7838 36.9967 43.943 36.9967C44.0487 36.9967 44.1534 36.9758 44.2511 36.9354C44.3487 36.8949 44.4375 36.8356 44.5122 36.7609C44.587 36.6861 44.6463 36.5974 44.6867 36.4997C44.7272 36.4021 44.748 36.2974 44.748 36.1917Z" fill="white" stroke="#BC9434" stroke-width="0.561983" stroke-linejoin="round"/>
<path d="M36.2112 51.449L34.9522 50.6234C34.9522 50.6234 34.172 51.3788 34.1265 51.449C34.0811 51.5192 31.9373 51.7751 31.5121 51.7751C31.0869 51.7751 30.7828 51.6747 30.7319 51.877C30.681 52.0792 31.336 52.5306 32.2923 52.7824C32.6693 52.8815 33.2197 53.0796 33.7619 53.2736L33.6766 53.4869C33.6766 53.4869 35.1104 54.0153 35.3374 54.0373C35.4145 54.047 35.4888 53.93 35.5535 53.7731C35.7778 53.5709 36.2112 51.449 36.2112 51.449Z" fill="#BC9434" stroke="#BC9434" stroke-width="0.561983" stroke-linejoin="round"/>
<path d="M57.5313 40.6802L57.834 42.1498C57.834 42.1498 58.9197 42.1636 59.0092 42.1498C59.0986 42.1361 60.798 43.4612 61.0966 43.7625C61.3952 44.0639 61.5424 44.3473 61.7213 44.24C61.9002 44.1327 61.7529 43.3511 61.2521 42.498C61.0539 42.1622 60.8021 41.6338 60.5558 41.1137L60.7663 41.0229C60.7663 41.0229 60.121 39.6372 59.9779 39.4597C59.9283 39.3992 59.7935 39.4294 59.638 39.4941C59.3298 39.4845 57.5313 40.6802 57.5313 40.6802Z" fill="#BC9434" stroke="#BC9434" stroke-width="0.561983" stroke-linejoin="round"/>
<path d="M42.8354 36.7489C42.8354 36.7489 42.4322 37.0007 42.4831 37.1521C42.534 37.3035 42.8601 37.5539 42.8601 37.5539C42.8601 37.5539 37.5404 42.1402 37.44 42.4925C37.3395 42.8447 34.1238 50.6179 34.1238 50.6179L36.5896 51.8563L39.8811 44.0322L45.4773 40.4546C45.4773 40.4546 49.5228 46.2091 49.926 46.1596C50.3292 46.11 58.606 42.2544 58.606 42.2544L57.7982 40.361L50.8053 42.7553L48.6216 37.8566C48.6216 37.8566 49.1499 36.9498 48.8238 36.0678C48.4977 35.1858 47.54 33.8276 47.54 33.8276L42.8354 36.7489Z" fill="#BC9434" stroke="#BC9434" stroke-width="0.561983" stroke-linejoin="round"/>
<path d="M45.476 40.4477C45.476 40.4477 48.1564 38.8433 48.3835 38.6162" stroke="#999999" stroke-width="0.561983" stroke-linejoin="round"/>
<path d="M44.0132 36.7242C44.3226 36.4484 44.6519 36.1959 44.9985 35.9688C45.5269 35.6674 46.735 35.717 46.735 35.717" stroke="#999999" stroke-width="0.561983" stroke-linejoin="round"/>
<path d="M43.1615 37.4783C43.1615 37.4783 43.3404 37.3132 43.5936 37.0889" stroke="#999999" stroke-width="0.561983" stroke-linejoin="round"/>
<path d="M47.3129 35.4404C47.3129 35.4404 46.3071 35.3138 45.5241 35.516" stroke="#999999" stroke-width="0.561983" stroke-linejoin="round"/>
<path d="M46.1048 40.1959C46.1048 40.1959 48.1936 40.5743 48.8734 40.5234" stroke="#999999" stroke-width="0.561983" stroke-linejoin="round"/>
<path d="M48.645 41.8127C48.8073 41.8609 48.9683 41.9008 49.1252 41.9325" stroke="#999999" stroke-width="0.561983" stroke-linejoin="round"/>
<path d="M46.0801 40.65C46.7568 41.0494 47.4667 41.3896 48.2019 41.6669" stroke="#999999" stroke-width="0.561983" stroke-linejoin="round"/>
<path d="M42.4308 36.2963L42.834 36.749L47.54 33.8291L47.2373 33.5277L42.4308 36.2963Z" fill="#BC9434" stroke="#BC9434" stroke-width="0.561983" stroke-linejoin="round"/>
<path d="M49.2766 30.4674L49.7086 31.0495L50.7654 30.6834L50.5494 30.1647L49.2766 30.4674Z" fill="white" stroke="#BC9434" stroke-width="0.561983" stroke-linejoin="round"/>
<path d="M38.1569 26.2238C38.1569 26.2238 36.064 26.2541 34.9921 26.2238C33.9201 26.1935 30.9245 25.5963 30.6851 26.0449C30.4457 26.4935 30.9534 27.7195 32.4203 28.1984C33.8871 28.6772 37.0864 29.1258 37.0864 29.1258C37.0864 29.1258 38.4019 30.777 39.1504 31.7581C39.899 32.7393 41.2736 35.0193 41.3933 35.2285C41.513 35.4376 42.0511 36.7242 42.7693 36.4545C43.4876 36.1848 47.4052 33.763 47.4052 33.5828C47.4052 33.4025 47.4052 33.1699 47.2868 33.0145C47.1685 32.859 45.7608 31.1307 45.5214 30.6752C45.282 30.2198 44.4206 28.014 44.4206 28.014L46.3043 27.5654C46.3043 27.5654 48.5184 30.0175 48.9367 30.4069C49.355 30.7963 49.7141 30.6463 49.7141 30.6463C49.7141 30.6463 50.7021 30.4661 50.731 30.1675C50.7599 29.8689 47.4409 24.7831 47.1121 24.6042C46.7832 24.4253 44.5692 25.1725 43.672 25.3211C42.7748 25.4697 41.6974 25.5303 40.4411 25.8302C39.6892 26.0114 38.9261 26.1428 38.1569 26.2238Z" fill="white" stroke="#BC9434" stroke-width="0.561983" stroke-linejoin="round"/>
<path d="M44.4054 28.0195L41.4139 28.8561" stroke="#BC9434" stroke-width="0.561983" stroke-linejoin="round"/>
<path d="M43.0583 28.4075L42.0125 29.2455" stroke="#BC9434" stroke-width="0.561983" stroke-linejoin="round"/>
<path d="M34.5352 27.9562L34.0852 27.7498" stroke="#BC9434" stroke-width="0.561983" stroke-linejoin="round"/>
<path d="M34.9824 27.6906L37.0767 29.1258L34.8613 28.1075" stroke="#BC9434" stroke-width="0.561983" stroke-linejoin="round"/>
<path d="M42.1157 32.3085C43.1684 32.5273 45.0054 32.8493 46.5548 32.8149" stroke="#BC9434" stroke-width="0.561983" stroke-linejoin="round"/>
<path d="M41.2529 32.1132C41.2529 32.1132 41.4332 32.1586 41.74 32.2274" stroke="#BC9434" stroke-width="0.561983" stroke-linejoin="round"/>
<path d="M44.5017 32.3801C44.5017 32.3801 45.7484 32.6388 46.5809 32.6388" stroke="#BC9434" stroke-width="0.561983" stroke-linejoin="round"/>
<path d="M38.1183 27.8035L38.5711 29.3185L39.16 27.7581L38.1183 27.8035Z" fill="#BC9434" stroke="#BC9434" stroke-width="0.561983" stroke-linejoin="round"/>
<path d="M38.2546 26.6613L37.6574 27.3191L38.6867 28.1433L39.2632 27.114L38.2546 26.6613Z" fill="white" stroke="#BC9434" stroke-width="0.561983" stroke-linejoin="round"/>
<path d="M37.6574 27.3191L37.9464 28.5341L38.3578 27.875L37.6574 27.3191Z" fill="white" stroke="#BC9434" stroke-width="0.561983" stroke-linejoin="round"/>
<path d="M35.7433 22.009C35.7433 22.009 35.3305 23.0176 35.3526 23.2846C35.3746 23.5515 35.5796 23.7166 35.559 24.0262C35.5383 24.3359 34.8998 24.911 35.0443 25.0555C35.1888 25.2 35.7227 25.4257 35.7227 25.4257C35.7227 25.4257 36.2993 26.6201 36.5057 26.6641C36.7121 26.7081 37.8225 26.1495 37.8225 26.1495L38.6867 28.1447L40.3957 25.6142L39.8191 24.4817C39.8191 24.4817 40.3131 23.2061 39.8398 22.1562C39.3664 21.1063 37.8638 21.0444 37.1428 21.1683C36.4217 21.2921 35.8878 21.5976 35.7433 22.009Z" fill="white" stroke="#BC9434" stroke-width="0.561983" stroke-miterlimit="10"/>
<path d="M37.1235 21.7847C36.9561 21.7492 36.783 21.7511 36.6165 21.7904C36.4499 21.8296 36.2942 21.9052 36.1603 22.0118C35.647 22.3819 35.2136 22.7933 35.0086 22.4246C34.8035 22.0558 35.4406 21.4366 35.4406 21.4366C35.4406 21.4366 34.926 21.2921 35.1324 20.6963C35.3388 20.1005 36.0956 19.9752 36.0956 20.1816C36.0956 20.388 36.0337 20.5518 36.6102 20.2642C37.1868 19.9766 37.495 19.8927 37.6189 20.2229C37.7427 20.5532 38.483 20.3605 39.3265 20.8394C40.17 21.3182 40.3764 21.6223 40.1907 22.6929C40.0049 23.7634 39.965 24.2767 39.8205 24.4817C39.676 24.6867 39.1614 24.7487 38.9357 24.6675C38.7101 24.5863 38.8325 24.3579 38.8325 24.3579C38.8325 24.3579 39.4297 23.7607 39.1614 23.2873C38.8931 22.814 38.5037 23.0204 38.3798 23.2873C38.256 23.5543 38.3179 23.7813 38.1321 23.7813C37.9464 23.7813 37.7826 23.6437 37.7413 23.3492C37.7001 23.0548 37.5569 22.7988 37.4331 22.7521C37.3093 22.7053 37.001 22.9791 37.0203 22.5057C37.0275 22.2327 37.1291 21.9706 37.3079 21.7641L37.1235 21.7847Z" fill="#BC9434" stroke="#BC9434" stroke-width="0.561983" stroke-miterlimit="10"/>
<path d="M35.7447 23.8199C35.7394 23.6888 35.7824 23.5603 35.8656 23.4588C35.9488 23.3573 36.0664 23.2899 36.196 23.2695" stroke="#BC9434" stroke-width="0.561983" stroke-miterlimit="10"/>
<path d="M36.2305 24.0235C36.2704 24.135 36.258 24.2423 36.2043 24.2615C36.1506 24.2808 36.0763 24.2038 36.0364 24.0909C35.9965 23.9781 36.0089 23.8721 36.0626 23.8529C36.1162 23.8336 36.1919 23.9107 36.2305 24.0235Z" fill="#BC9434"/>
<path d="M40.3544 24.9523L38.5642 27.2365L38.8931 28.4516L40.9929 25.5289L40.3544 24.9523Z" fill="white" stroke="#BC9434" stroke-width="0.561983" stroke-linejoin="round"/>
<path d="M38.5697 29.3185C38.6008 29.4217 38.6594 29.5146 38.7391 29.5873C38.8188 29.66 38.9167 29.7098 39.0224 29.7313C39.3843 29.7987 40.0173 29.5276 40.3338 28.713C40.6502 27.8984 41.3066 25.6596 41.6905 25.1161C42.0744 24.5726 43.3418 24.5519 43.9981 24.5959C44.6545 24.64 45.1058 24.0084 45.7168 23.7139C46.0746 23.54 46.4555 23.4181 46.8479 23.352L47.6184 21.7847L46.0126 21.7393C46.0126 21.7393 44.4288 22.4865 44.0215 22.9612C43.6142 23.436 43.3211 23.374 42.4611 23.5488C41.6011 23.7235 41.1277 24.0923 40.7878 25.1326C40.448 26.1729 39.9966 28.7969 39.4985 29.1588C39.3712 29.2644 39.2184 29.3346 39.0554 29.3626C38.8924 29.3907 38.725 29.3754 38.5697 29.3185Z" fill="#BC9434" stroke="#BC9434" stroke-width="0.561983" stroke-linejoin="round"/>
<path d="M33.0092 27.6136C33.1949 27.8076 33.2225 28.0828 33.0697 28.2314C32.917 28.38 32.6404 28.3428 32.4546 28.1502C32.2689 27.9576 32.2414 27.681 32.3941 27.5324C32.5468 27.3838 32.822 27.4264 33.0092 27.6136Z" fill="white" stroke="#BC9434" stroke-width="0.561983" stroke-linejoin="round"/>
<path d="M32.862 27.9892L32.5634 27.6727C32.5634 27.6727 31.9497 26.0738 31.1309 25.6458C30.3122 25.2179 29.327 25.8688 29.1219 26.4825C28.9169 27.0962 29.6435 28.1199 30.4058 28.4364C31.018 28.6657 31.6462 28.8497 32.2854 28.9868C32.2854 28.9868 32.639 28.1571 32.862 27.9892Z" fill="white" stroke="#BC9434" stroke-width="0.561983" stroke-linejoin="round"/>
<path d="M31.8011 28.8451L31.8327 28.8864C32.1011 28.9538 32.2855 28.9937 32.2855 28.9937C32.2855 28.9937 32.6391 28.1571 32.862 27.9892L32.5634 27.6727C32.5634 27.6727 31.7075 27.8213 31.8011 28.8451Z" fill="#BC9434" stroke="#BC9434" stroke-width="0.561983" stroke-linejoin="round"/>
<path d="M34.7402 30.4633C34.8486 30.6191 34.9737 30.7626 35.1131 30.8913C35.2617 31.0041 35.3168 31.1334 35.131 31.1156C34.9062 31.1102 34.6925 31.0162 34.5366 30.8541C34.3494 30.6505 34.2201 30.4826 34.2201 30.4826L34.7402 30.4633Z" fill="white" stroke="#BC9434" stroke-width="0.561983" stroke-linejoin="round"/>
<path d="M34.8338 29.9033C34.8338 29.9033 35.0939 30.3312 35.0017 30.4427C34.9095 30.5541 34.0522 30.5913 33.9215 30.5541C33.7908 30.517 33.8844 30.3491 33.8844 30.3491L34.8338 29.9033Z" fill="white" stroke="#BC9434" stroke-width="0.561983" stroke-linejoin="round"/>
<path d="M34.8146 29.4037C34.8146 29.4037 35.0196 29.7202 34.9825 29.8496C34.9453 29.9789 34.0715 30.3711 33.8816 30.3518C33.6918 30.3326 33.7151 30.1853 33.7151 30.1853L34.8146 29.4037Z" fill="white" stroke="#BC9434" stroke-width="0.561983" stroke-linejoin="round"/>
<path d="M34.4623 29.0309C34.4623 29.0309 34.7967 28.9937 34.8338 29.2359C34.871 29.4781 34.666 29.5524 34.5366 29.6638C34.4073 29.7753 33.8486 30.1853 33.7179 30.1853C33.5871 30.1853 33.345 29.8124 33.345 29.8124L34.4623 29.0309Z" fill="white" stroke="#BC9434" stroke-width="0.561983" stroke-linejoin="round"/>
<path d="M32.862 27.9892C32.862 27.9892 33.7729 28.3249 34.2009 28.4364C34.6288 28.5479 34.6481 28.9015 34.4623 29.0308C34.2766 29.1602 33.6986 29.8688 33.5308 29.906C33.3629 29.9432 33.1179 29.7574 33.1179 29.7574C33.1179 29.7574 32.5964 29.4959 32.5221 29.2923C32.4768 29.169 32.3922 29.0641 32.2813 28.9937C32.2813 28.9937 32.229 28.2314 32.862 27.9892Z" fill="white" stroke="#BC9434" stroke-width="0.561983" stroke-linejoin="round"/>
<path d="M33.1221 29.7574C33.1221 29.7574 32.9735 29.4038 33.1042 29.3102C33.2349 29.2166 33.4386 29.4217 33.4386 29.4217C33.4683 29.3139 33.5187 29.2129 33.5872 29.1245" stroke="#BC9434" stroke-width="0.561983" stroke-linejoin="round"/>
<path d="M49.7155 31.0495C49.7647 31.3163 49.7955 31.5862 49.8077 31.8572C49.7925 32.0457 49.4637 32.8301 49.4472 32.8768C49.4306 32.9236 49.5572 33.1121 49.604 33.1741C49.6508 33.236 49.871 33.2057 50.043 33.3461C50.215 33.4864 50.4186 33.8332 50.6704 33.7589C50.9223 33.6846 51.0832 33.3461 51.0832 33.3461C51.0832 33.3461 51.6626 33.0021 51.6777 32.8301C51.6856 32.618 51.6591 32.4061 51.5993 32.2026C51.5525 32.065 50.7736 30.689 50.7736 30.689L49.7155 31.0495Z" fill="white" stroke="#BC9434" stroke-width="0.561983" stroke-linejoin="round"/>
<path d="M49.8792 32.7351C49.8792 32.7351 50.1764 32.7819 50.303 33.2374" stroke="#BC9434" stroke-width="0.561983" stroke-linejoin="round"/>
<path d="M50.0361 32.9704L49.3618 33.3158L49.9893 34.4909" stroke="#BC9434" stroke-width="1.68595" stroke-linecap="round" stroke-linejoin="round"/>
<path d="M51.6818 32.4063L51.869 32.3278L52.4964 33.5814" stroke="#BC9434" stroke-width="1.68595" stroke-linejoin="round"/>
<path d="M54.8183 32.3234L48.0743 35.3331C47.8113 35.4505 47.6932 35.7589 47.8106 36.0219L49.6202 40.0768C49.7376 40.3399 50.046 40.4579 50.309 40.3406L57.053 37.3309C57.3161 37.2135 57.4341 36.9051 57.3167 36.6421L55.5071 32.5871C55.3897 32.3241 55.0814 32.2061 54.8183 32.3234Z" fill="#BC9434" stroke="#BC9434" stroke-width="0.561983" stroke-linejoin="round"/>
</svg>
