<svg width="24" height="24" viewBox="0 0 24 24" fill="none" xmlns="http://www.w3.org/2000/svg">
<path d="M3 4.97C3 3.33 4.34 2 6 2H18C19.66 2 21 3.33 21 4.97V15.88C21 17.52 19.66 18.85 18 18.85H17.24C16.44 18.85 15.68 19.16 15.12 19.72L13.41 21.41C12.63 22.18 11.36 22.18 10.58 21.41L8.87 19.72C8.31 19.16 7.54 18.85 6.75 18.85H6C4.34 18.85 3 17.52 3 15.88V9.03" stroke="white" stroke-width="1.5" stroke-miterlimit="10" stroke-linecap="round" stroke-linejoin="round"/>
<path d="M16 15.658C16 13.858 14.21 12.398 12 12.398C9.79 12.398 8 13.858 8 15.658M12.002 10C12.308 10 12.611 9.93976 12.8937 9.82267C13.1763 9.70557 13.4332 9.53395 13.6496 9.31759C13.8659 9.10123 14.0375 8.84437 14.1546 8.56168C14.2717 8.27899 14.332 7.97601 14.332 7.67003C14.332 7.36405 14.2717 7.06106 14.1546 6.77837C14.0375 6.49569 13.8659 6.23883 13.6496 6.02247C13.4332 5.80611 13.1763 5.63448 12.8937 5.51739C12.611 5.40029 12.308 5.34003 12.002 5.34003C11.384 5.34003 10.7914 5.58551 10.3544 6.02247C9.91748 6.45943 9.672 7.05207 9.672 7.67003C9.672 8.28798 9.91748 8.88063 10.3544 9.31759C10.7914 9.75455 11.384 10 12.002 10V10Z" stroke="white" stroke-width="1.5" stroke-linecap="round" stroke-linejoin="round"/>
</svg>
